HIERARCHY
ROOT Hips
{
	OFFSET 0.00000 0.00000 0.00000
	CHANNELS 6 Xposition Yposition Zposition Zrotation Yrotation Xrotation 
	JOINT LHipJoint
	{
		OFFSET 0 0 0
		CHANNELS 3 Zrotation Yrotation Xrotation
		JOINT LeftHip
		{
			OFFSET 1.75344 -1.53157 0.77399
			CHANNELS 3 Zrotation Yrotation Xrotation
			JOINT LeftKnee
			{
				OFFSET 2.25415 -6.19323 0.00000
				CHANNELS 3 Zrotation Yrotation Xrotation
				JOINT LeftAnkle
				{
					OFFSET 2.30342 -6.32861 0.00000
					CHANNELS 3 Zrotation Yrotation Xrotation
					JOINT LeftToe
					{
						OFFSET 0.10958 -0.30108 1.49206
						CHANNELS 3 Zrotation Yrotation Xrotation
						End Site
						{
							OFFSET 0.00000 -0.00000 0.77783
						}
					}
				}
			}
		}
	}
	JOINT RHipJoint
	{
		OFFSET 0 0 0
		CHANNELS 3 Zrotation Yrotation Xrotation
		JOINT RightHip
		{
			OFFSET -1.81912 -1.53156 0.77399
			CHANNELS 3 Zrotation Yrotation Xrotation
			JOINT RightKnee
			{
				OFFSET -2.22882 -6.12365 0.00000
				CHANNELS 3 Zrotation Yrotation Xrotation
				JOINT RightAnkle
				{
					OFFSET -2.21943 -6.09785 0.00000
					CHANNELS 3 Zrotation Yrotation Xrotation
					JOINT RightToe
					{
						OFFSET -0.18931 -0.52012 1.59379
						CHANNELS 3 Zrotation Yrotation Xrotation
						End Site
						{
							OFFSET -0.00000 -0.00000 0.84686
						}
					}
				}
			}
		}
	}
	JOINT lowerback
	{
		OFFSET 0 0 0
		CHANNELS 3 Zrotation Yrotation Xrotation
		JOINT Chest
		{
			OFFSET -0.00200 1.66634 -0.14248
			CHANNELS 3 Zrotation Yrotation Xrotation
			JOINT Chest2
			{
				OFFSET -0.00875 1.64542 0.09514
				CHANNELS 3 Zrotation Yrotation Xrotation
				JOINT lowerneck
				{
					OFFSET 0 0 0
					CHANNELS 3 Zrotation Yrotation Xrotation
					JOINT Neck
					{
						OFFSET 0.02257 1.59605 0.00839
						CHANNELS 3 Zrotation Yrotation Xrotation
						JOINT Head
						{
							OFFSET -0.10214 1.57530 -0.23335
							CHANNELS 3 Zrotation Yrotation Xrotation
							End Site
							{
								OFFSET -0.03588 1.60717 -0.08062
							}
						}
					}
				}
				JOINT LeftCollar
				{
					OFFSET 0 0 0
					CHANNELS 3 Zrotation Yrotation Xrotation
					JOINT LeftShoulder
					{
						OFFSET 2.54983 1.10186 0.40078
CHANNELS 3 Zrotation Xrotation Yrotation
						JOINT LeftElbow
						{
OFFSET 0 -4.288400 0.000000
CHANNELS 3 Zrotation Xrotation Yrotation
							JOINT LeftWrist
							{
OFFSET 0 -3.065520 -0.000000
CHANNELS 3 Zrotation Xrotation Yrotation
								JOINT lhand
								{
									OFFSET 0 0 0
CHANNELS 3 Zrotation Xrotation Yrotation
									JOINT LFingers
									{
OFFSET 0 -0.753040 0.000000
CHANNELS 3 Zrotation Xrotation Yrotation
										End Site
										{
OFFSET 0 -0.607120 0.000000
										}
									}
								}
								JOINT LThumb
								{
OFFSET 0 0.000000 0.000000
CHANNELS 3 Zrotation Xrotation Yrotation
									End Site
									{
OFFSET 0 -0.616390 0.616390
									}
								}
							}
						}
					}
				}
				JOINT RightCollar
				{
					OFFSET 0 0 0
					CHANNELS 3 Zrotation Yrotation Xrotation
					JOINT RightShoulder
					{
						OFFSET -2.60909 1.35448 0.21802
CHANNELS 3 Zrotation Xrotation Yrotation
						JOINT RightElbow
						{
OFFSET 0 -4.521720 -0.000000
CHANNELS 3 Zrotation Xrotation Yrotation
							JOINT RightWrist
							{
OFFSET 0 -2.891400 0.000000
CHANNELS 3 Zrotation Xrotation Yrotation
								JOINT rhand
								{
									OFFSET 0 0 0
CHANNELS 3 Zrotation Xrotation Yrotation
									JOINT RFingers
									{
OFFSET 0 -0.680540 0.000000
CHANNELS 3 Zrotation Xrotation Yrotation
										End Site
										{
OFFSET 0 -0.548670 0.000000
										}
									}
								}
								JOINT RThumb
								{
OFFSET 0 0.000000 0.000000
CHANNELS 3 Zrotation Xrotation Yrotation
									End Site
									{
OFFSET 0 -0.557050 0.557050
									}
								}
							}
						}
					}
				}
			}
		}
	}
}
MOTION
Frames: 4
Frame Time: 0.008333333333333333
8.776497 15.236917 -37.335383 -1.909385 -4.535501 -2.356925 0.000000 0.000000 0.000000 -14.424177 -23.473040 -14.328592 2.784376 10.337583 30.076917 0.290100 -9.116758 -10.755447 2.460563 -9.765839 -28.221720 0.000000 0.000000 0.000000 35.232516 9.960830 2.141476 -1.320486 -7.277806 20.541011 0.858926 -27.032907 -33.067221 -1.310385 -7.250084 20.458778 1.572325 1.264134 9.509497 1.225069 1.883497 1.689065 0.152277 0.920555 -3.565118 0.425128 0.028519 -5.258361 -7.823465 0.511616 5.520179 -2.618293 0.006192 2.736554 0.000000 0.000000 0.000000 2.965662 2.977320 -33.884273 21.329976 -32.211507 6.224905 8.472023 8.394239 33.086423 0.000000 0.000000 0.000000 -7.125000 0.000000 0.000000 -13.175571 -2.623985 -14.136505 0.000000 0.000000 0.000000 -7.817450 4.821018 55.987327 -17.439948 -27.434061 -4.288088 -10.985095 18.336441 52.009313 0.000000 0.000000 0.000000 7.125000 0.000000 0.000000 63.656147 75.017638 -49.082796
8.780566 15.238316 -37.350143 -1.810986 -4.962207 -2.341355 0.000000 0.000000 0.000000 -14.459107 -23.349849 -14.328744 2.767927 10.309590 29.985023 0.293412 -8.750391 -10.665111 2.339234 -9.538339 -27.495252 0.000000 0.000000 0.000000 35.085594 9.989129 2.067075 -1.323443 -7.285862 20.565006 0.864347 -26.845302 -32.722188 -1.229665 -7.032705 19.812248 1.583141 1.240613 9.498029 1.283735 1.856048 1.650695 0.210108 0.906645 -3.600491 0.303080 0.244230 -5.327572 -7.938437 0.833667 5.720443 -2.626756 0.152899 2.833329 0.000000 0.000000 0.000000 2.825638 2.747977 -34.050766 21.499990 -32.407262 6.315750 8.748710 8.074858 33.071022 0.000000 0.000000 0.000000 -7.125000 0.000000 0.000000 -13.021320 -2.644717 -13.967442 0.000000 0.000000 0.000000 -7.732517 4.796381 56.055136 -17.306572 -27.260123 -4.226778 -11.124426 19.141467 52.382509 0.000000 0.000000 0.000000 7.125000 0.000000 0.000000 64.920297 75.200116 -50.412782
8.779100 15.248000 -37.366781 -1.659361 -5.324636 -2.204856 0.000000 0.000000 0.000000 -14.490530 -23.364810 -14.269953 2.698030 10.189412 29.592225 0.301761 -8.429594 -10.664397 2.498943 -9.835903 -28.447050 0.000000 0.000000 0.000000 34.929536 10.374300 1.941842 -1.330705 -7.304884 20.621741 0.899920 -26.884309 -32.559191 -1.158839 -6.834212 19.225229 1.561704 1.260714 9.556756 1.246393 1.883080 1.529866 0.177026 0.918553 -3.757934 0.481068 0.368242 -5.771653 -8.225538 1.048062 6.189747 -2.762736 0.232067 3.095546 0.000000 0.000000 0.000000 2.761575 2.627287 -33.843758 21.432230 -32.329284 6.279519 8.670090 8.273952 32.834653 0.000000 0.000000 0.000000 -7.125000 0.000000 0.000000 -13.049692 -2.404714 -13.946173 0.000000 0.000000 0.000000 -7.539118 4.890351 55.958021 -17.414955 -27.401546 -4.276580 -9.795874 18.087704 52.869176 0.000000 0.000000 0.000000 7.125000 0.000000 0.000000 67.311552 74.851901 -52.199829
8.778487 15.253665 -37.376190 -1.596225 -5.476313 -2.226013 0.000000 0.000000 0.000000 -14.576366 -23.534252 -14.014084 2.658014 10.119749 29.365322 0.325413 -8.031547 -10.848086 2.491174 -9.821482 -28.400948 0.000000 0.000000 0.000000 34.874842 10.426115 1.997663 -1.321818 -7.281293 20.551479 0.899438 -26.843712 -32.494191 -1.186930 -6.913777 19.460062 1.588558 1.258998 9.560386 1.282776 1.885346 1.511751 0.199056 0.919288 -3.779149 0.625793 0.408618 -5.906736 -8.612825 1.139543 6.441895 -2.926642 0.257479 3.222176 0.000000 0.000000 0.000000 2.590115 2.479944 -33.470675 21.356767 -32.242477 6.239203 9.499516 7.854946 32.995342 0.000000 0.000000 0.000000 -7.125000 0.000000 0.000000 -12.601463 -2.671236 -13.499696 0.000000 0.000000 0.000000 -7.635839 4.982754 55.969248 -17.415030 -27.401674 -4.276594 -10.152721 18.634429 52.697444 0.000000 0.000000 0.000000 7.125000 0.000000 0.000000 66.531728 74.934166 -51.579626
